<svg width="100" height="100" viewBox="0 0 100 100" fill="none" xmlns="http://www.w3.org/2000/svg">
<g opacity="0.2">
<path d="M27.0833 41.6665C26.1542 41.6665 25.2625 41.8082 24.375 41.9373C24.6625 40.9707 24.9583 39.9873 25.4333 39.104C25.9083 37.8207 26.65 36.7082 27.3875 35.5873C28.0042 34.3748 29.0917 33.554 29.8917 32.5165C30.7292 31.5082 31.8708 30.8373 32.775 29.9998C33.6625 29.1248 34.825 28.6873 35.75 28.0707C36.7167 27.5165 37.5583 26.904 38.4583 26.6123L40.7042 25.6873L42.6792 24.8665L40.6583 16.7915L38.1708 17.3915C37.375 17.5915 36.4042 17.8248 35.3 18.104C34.1708 18.3123 32.9667 18.8832 31.625 19.404C30.3 19.9957 28.7667 20.3957 27.3417 21.3457C25.9083 22.254 24.2542 23.0123 22.7958 24.229C21.3833 25.4832 19.6792 26.5707 18.4208 28.1665C17.0458 29.6582 15.6875 31.2248 14.6333 33.0082C13.4125 34.7082 12.5833 36.5748 11.7083 38.4207C10.9167 40.2665 10.2792 42.154 9.75833 43.9873C8.77083 47.6623 8.32916 51.154 8.15833 54.1415C8.01666 57.1332 8.09999 59.6207 8.27499 61.4207C8.33749 62.2707 8.45416 63.0957 8.5375 63.6665L8.64166 64.3665L8.74999 64.3415C9.49108 67.8033 11.1971 70.9845 13.6707 73.5173C16.1443 76.05 19.2843 77.8306 22.7277 78.6533C26.171 79.4759 29.7769 79.3069 33.1281 78.1658C36.4794 77.0247 39.4392 74.9581 41.665 72.2052C43.8909 69.4522 45.2919 66.1253 45.7059 62.6094C46.1199 59.0935 45.5301 55.5322 44.0047 52.3374C42.4793 49.1427 40.0806 46.4451 37.086 44.5567C34.0915 42.6683 30.6236 41.6663 27.0833 41.6665V41.6665ZM72.9167 41.6665C71.9875 41.6665 71.0958 41.8082 70.2083 41.9373C70.4958 40.9707 70.7917 39.9873 71.2667 39.104C71.7417 37.8207 72.4833 36.7082 73.2208 35.5873C73.8375 34.3748 74.925 33.554 75.725 32.5165C76.5625 31.5082 77.7042 30.8373 78.6083 29.9998C79.4958 29.1248 80.6583 28.6873 81.5833 28.0707C82.55 27.5165 83.3917 26.904 84.2917 26.6123L86.5375 25.6873L88.5125 24.8665L86.4917 16.7915L84.0042 17.3915C83.2083 17.5915 82.2375 17.8248 81.1333 18.104C80.0042 18.3123 78.8 18.8832 77.4583 19.404C76.1375 19.9998 74.6 20.3957 73.175 21.3498C71.7417 22.2582 70.0875 23.0165 68.6292 24.2332C67.2167 25.4873 65.5125 26.5748 64.2542 28.1665C62.8792 29.6582 61.5208 31.2248 60.4667 33.0082C59.2458 34.7082 58.4167 36.5748 57.5417 38.4207C56.75 40.2665 56.1125 42.154 55.5917 43.9873C54.6042 47.6623 54.1625 51.154 53.9917 54.1415C53.85 57.1332 53.9333 59.6207 54.1083 61.4207C54.1708 62.2707 54.2875 63.0957 54.3708 63.6665L54.475 64.3665L54.5833 64.3415C55.3244 67.8033 57.0304 70.9845 59.504 73.5173C61.9776 76.05 65.1177 77.8306 68.561 78.6533C72.0043 79.4759 75.6102 79.3069 78.9615 78.1658C82.3128 77.0247 85.2725 74.9581 87.4984 72.2052C89.7242 69.4522 91.1252 66.1253 91.5392 62.6094C91.9533 59.0935 91.3635 55.5322 89.838 52.3374C88.3126 49.1427 85.9139 46.4451 82.9194 44.5567C79.9249 42.6683 76.4569 41.6663 72.9167 41.6665V41.6665Z" fill="#F0D8A8"/>
</g>
</svg>
