<svg width="24" height="36" viewBox="0 0 24 36" fill="none" xmlns="http://www.w3.org/2000/svg">
<path d="M12 36C11.7567 36 11.5285 35.9614 11.3156 35.8841C11.1027 35.8081 10.9049 35.6782 10.7224 35.4942L0.5019 25.1954C0.1673 24.8582 0 24.4365 0 23.9301C0 23.425 0.1673 22.9885 0.5019 22.6207C0.866919 22.2529 1.30008 22.069 1.80137 22.069C2.30388 22.069 2.73764 22.2529 3.10266 22.6207L10.1749 29.7471V1.83908C10.1749 1.31801 10.3501 0.880919 10.7005 0.527816C11.0497 0.175939 11.4829 0 12 0C12.5171 0 12.9509 0.175939 13.3013 0.527816C13.6505 0.880919 13.8251 1.31801 13.8251 1.83908V29.7471L20.943 22.6207C21.2776 22.2835 21.6955 22.107 22.1968 22.091C22.6993 22.0763 23.1331 22.2529 23.4981 22.6207C23.8327 22.9579 24 23.387 24 23.908C24 24.4291 23.8327 24.8582 23.4981 25.1954L13.2776 35.4942C13.0951 35.6782 12.8973 35.8081 12.6844 35.8841C12.4715 35.9614 12.2433 36 12 36Z" fill="#549663"/>
</svg>
