<svg width="92" height="16" viewBox="0 0 92 16" fill="none" xmlns="http://www.w3.org/2000/svg">
<path d="M16.2146 6.06846C16.0802 5.66533 15.7443 5.37978 15.3244 5.32939L11.1419 4.72471L9.27749 0.94541C8.90796 0.206348 7.68179 0.206348 7.31226 0.94541L5.44781 4.72471L1.28218 5.32939C0.862259 5.39658 0.526321 5.68213 0.391946 6.06846C0.257571 6.47158 0.375149 6.8915 0.660696 7.19385L3.68413 10.1501L2.97866 14.3157C2.91148 14.7188 3.07945 15.1388 3.41538 15.3907C3.75132 15.6427 4.20484 15.6595 4.57437 15.4747L8.30327 13.5095L12.049 15.4747C12.2169 15.5587 12.3849 15.6091 12.5529 15.6091C12.7712 15.6091 13.0064 15.5419 13.1912 15.4075C13.5271 15.1556 13.6951 14.7524 13.6279 14.3325L12.9224 10.1669L15.9459 7.21064C16.2482 6.9083 16.349 6.47158 16.2146 6.06846Z" fill="#FFD800"/>
<path d="M35.1511 6.06846C35.0168 5.66533 34.6808 5.37978 34.2609 5.32939L30.0785 4.72471L28.214 0.94541C27.8445 0.206348 26.6183 0.206348 26.2488 0.94541L24.3843 4.72471L20.2187 5.32939C19.7988 5.39658 19.4628 5.68213 19.3285 6.06846C19.1941 6.47158 19.3117 6.8915 19.5972 7.19385L22.6207 10.1501L21.9152 14.3157C21.848 14.7188 22.016 15.1388 22.3519 15.3907C22.6878 15.6427 23.1414 15.6595 23.5109 15.4747L27.2398 13.5095L30.9855 15.4747C31.1535 15.5587 31.3214 15.6091 31.4894 15.6091C31.7078 15.6091 31.9429 15.5419 32.1277 15.4075C32.4636 15.1556 32.6316 14.7524 32.5644 14.3325L31.8589 10.1669L34.8824 7.21064C35.1679 6.9083 35.2855 6.47158 35.1511 6.06846Z" fill="#FFD800"/>
<path d="M54.0847 6.06846C53.9503 5.66533 53.6143 5.37978 53.1944 5.32939L49.012 4.72471L47.1475 0.94541C46.778 0.206348 45.5518 0.206348 45.1823 0.94541L43.3179 4.72471L39.1522 5.32939C38.7323 5.39658 38.3964 5.68213 38.262 6.06846C38.1276 6.47158 38.2452 6.8915 38.5308 7.19385L41.5542 10.1501L40.8487 14.3157C40.7815 14.7188 40.9495 15.1388 41.2854 15.3907C41.6214 15.6427 42.0749 15.6595 42.4444 15.4747L46.1733 13.5095L49.919 15.4747C50.087 15.5587 50.255 15.6091 50.4229 15.6091C50.6413 15.6091 50.8765 15.5419 51.0612 15.4075C51.3972 15.1556 51.5651 14.7524 51.4979 14.3325L50.7925 10.1669L53.8159 7.21064C54.1015 6.9083 54.219 6.47158 54.0847 6.06846Z" fill="#FFD800"/>
<path d="M73.0182 6.06846C72.8839 5.66533 72.5479 5.37978 72.128 5.32939L67.9456 4.72471L66.0811 0.94541C65.7116 0.206348 64.4854 0.206348 64.1159 0.94541L62.2515 4.72471L58.0858 5.32939C57.6659 5.39658 57.33 5.68213 57.1956 6.06846C57.0612 6.47158 57.1788 6.8915 57.4643 7.19385L60.4878 10.1501L59.7823 14.3157C59.7151 14.7188 59.8831 15.1388 60.219 15.3907C60.555 15.6427 61.0085 15.6595 61.378 15.4747L65.1069 13.5095L68.8526 15.4747C69.0206 15.5587 69.1886 15.6091 69.3565 15.6091C69.5749 15.6091 69.81 15.5419 69.9948 15.4075C70.3307 15.1556 70.4987 14.7524 70.4315 14.3325L69.7261 10.1669L72.7495 7.21064C73.035 6.9083 73.1526 6.47158 73.0182 6.06846Z" fill="#FFD800"/>
<path d="M91.9518 6.07676C91.8175 5.67363 91.4815 5.38808 91.0616 5.33769L86.8792 4.73301L85.0147 0.953711C84.6452 0.214648 83.419 0.214648 83.0495 0.953711L81.1851 4.73301L77.0194 5.33769C76.5995 5.40488 76.2636 5.69043 76.1292 6.07676C75.9948 6.47988 76.1124 6.8998 76.3979 7.20215L79.4214 10.1584L78.7159 14.324C78.6487 14.7271 78.8167 15.1471 79.1526 15.399C79.3374 15.5334 79.5725 15.6006 79.7909 15.6006C79.9589 15.6006 80.1436 15.567 80.2948 15.4662L84.0237 13.501L87.7694 15.4662C88.139 15.6678 88.5757 15.6342 88.9284 15.3822C89.2643 15.1303 89.4323 14.7271 89.3651 14.3072L88.6597 10.1416L91.6831 7.18535C91.9686 6.9166 92.0694 6.47988 91.9518 6.07676Z" fill="#FFD800"/>
</svg>
